<svg width="31" height="30" viewBox="0 0 31 30" fill="none" xmlns="http://www.w3.org/2000/svg">
<path d="M29.3834 15.5537L24.425 10.9287V5.54999C24.425 5.05293 24.0221 4.64999 23.525 4.64999H21.875C21.3779 4.64999 20.975 5.05293 20.975 5.54999V7.71065L16.2865 3.3374C15.8438 2.92428 15.1562 2.92428 14.7135 3.3374L1.61664 15.5537C1.1509 15.9883 1.12548 16.7179 1.55985 17.1836C1.99406 17.6492 2.72381 17.6748 3.18972 17.2404L15.5 5.75767L27.8103 17.2404C28.0325 17.4476 28.3148 17.5502 28.5965 17.5502C28.9052 17.5502 29.213 17.4272 29.4401 17.1836C29.8745 16.7179 29.8491 15.9883 29.3834 15.5537Z" fill="#767676"/>
<path d="M5.69922 16.8409V25.1603C5.69922 26.1619 6.50975 26.9724 7.51136 26.9724H12.0154V19.5855H18.9871V26.9724H23.4911C24.4928 26.9724 25.3033 26.1619 25.3033 25.1603V16.8409L15.5012 7.69786L5.69922 16.8409Z" fill="#767676"/>
</svg>
