<svg width="216" height="245" viewBox="0 0 216 245" fill="none" xmlns="http://www.w3.org/2000/svg">
<path d="M107.8 3C138.617 3 163.6 27.9825 163.6 58.8V93.1C163.6 94.1493 162.749 95 161.7 95C160.651 95 159.8 94.1493 159.8 93.1V58.8C159.8 30.0812 136.519 6.8 107.8 6.8C79.0812 6.8 55.8 30.0812 55.8 58.8V93.1C55.8 94.1493 54.9493 95 53.9 95C52.8507 95 52 94.1493 52 93.1V58.8C52 27.9825 76.9825 3 107.8 3Z" stroke="#25262D" stroke-width="6"/>
<path d="M144 73.5C144 74.5493 143.149 75.4 142.1 75.4H73.5001C72.4508 75.4 71.6001 74.5493 71.6001 73.5C71.6001 72.4506 72.4508 71.6 73.5001 71.6H142.1C143.149 71.6 144 72.4506 144 73.5Z" stroke="#25262D" stroke-width="6"/>
<path d="M24.1582 68.6117L24.3558 71.6052C24.2838 71.6099 24.51 71.6094 25.0501 71.6081C25.254 71.6077 25.5026 71.6071 25.7968 71.6066C26.752 71.6052 28.0151 71.6039 29.2753 71.6029C30.5354 71.602 31.7919 71.6012 32.7334 71.6007L33.8704 71.6002L34.1887 71.6L34.2725 71.6L34.2939 71.6L34.2994 71.6L34.3 71.6C34.3002 71.6 34.3004 71.6 34.3005 71.6C35.3496 71.6003 36.2 72.4508 36.2 73.5C36.2 74.5493 35.3493 75.4 34.3 75.4H26.5341H25.2917L24.413 76.2784L6.24334 94.4436C5.50126 95.1855 4.29824 95.1854 3.55633 94.4433C2.81443 93.7012 2.81458 92.4982 3.55666 91.7563L23.0299 72.2878L23.0692 72.2485L23.107 72.2078C23.4302 71.8598 23.8724 71.6385 24.3644 71.6046L24.1582 68.6117ZM24.1582 68.6117C24.2753 68.604 34.3 68.6 34.3 68.6L20.9088 70.1662C21.7312 69.2808 22.8769 68.7 24.1582 68.6117Z" stroke="#25262D" stroke-width="6"/>
<path d="M191.441 68.6117L191.244 71.6052C191.316 71.6099 191.09 71.6094 190.549 71.6081C190.346 71.6077 190.097 71.6071 189.803 71.6066C188.848 71.6052 187.585 71.6039 186.324 71.6029C185.064 71.602 183.808 71.6012 182.866 71.6007L181.729 71.6002L181.411 71.6L181.327 71.6L181.306 71.6L181.3 71.6L181.3 71.6C181.299 71.6 181.299 71.6 181.299 71.6C180.25 71.6003 179.4 72.4508 179.4 73.5C179.4 74.5493 180.25 75.4 181.3 75.4H189.066H190.308L191.187 76.2784L209.356 94.4436L207.235 96.5652L209.356 94.4436C210.098 95.1855 211.301 95.1854 212.043 94.4433C212.785 93.7012 212.785 92.4982 212.043 91.7563L192.57 72.2878L192.53 72.2485L192.493 72.2078C192.169 71.8598 191.727 71.6385 191.235 71.6046L191.441 68.6117ZM191.441 68.6117C191.324 68.604 181.3 68.6 181.3 68.6L194.691 70.1662C193.868 69.2808 192.723 68.7 191.441 68.6117Z" stroke="#25262D" stroke-width="6"/>
<path d="M3 240.1V93.1C3 92.0506 3.85066 91.2 4.9 91.2H210.7C211.749 91.2 212.6 92.0506 212.6 93.1V240.1C212.6 241.149 211.749 242 210.7 242H4.9C3.85066 242 3 241.149 3 240.1ZM115.7 122.5C115.7 118.137 112.163 114.6 107.8 114.6C103.437 114.6 99.9 118.137 99.9 122.5V181.828L83.9861 165.914C80.901 162.829 75.899 162.829 72.8139 165.914C69.7287 168.999 69.7287 174.001 72.8139 177.086L102.214 206.486C105.299 209.571 110.301 209.571 113.386 206.486L142.786 177.086C145.871 174.001 145.871 168.999 142.786 165.914C139.701 162.829 134.699 162.829 131.614 165.913C131.614 165.914 131.614 165.914 131.614 165.914L115.7 181.822V122.5Z" stroke="#25262D" stroke-width="6"/>
</svg>
