<svg width="242" height="240" viewBox="0 0 242 240" fill="none" xmlns="http://www.w3.org/2000/svg">
<path d="M40.5301 240H1.84742C0.829452 240 0 239.17 0 238.152V157.055C0 156.037 0.829452 155.207 1.84742 155.207H40.5301C41.548 155.207 42.3775 156.037 42.3775 157.055V238.19C42.3775 239.17 41.548 240 40.5301 240ZM3.69483 236.305H38.6826V158.902H3.69483V236.305Z" fill="#25262D"/>
<path d="M192.094 213.91C191.943 213.91 191.792 213.872 191.641 213.835L133.957 198.791C132.977 198.527 132.373 197.509 132.637 196.529C132.901 195.549 133.881 194.946 134.899 195.21L190.737 209.763L237.186 26.3029L149.415 4.09625L107.414 167.725C107.15 168.705 106.132 169.308 105.152 169.044C104.172 168.78 103.569 167.762 103.833 166.782L146.285 1.38167C146.549 0.401413 147.492 -0.201826 148.548 0.0620911L239.9 23.1736C240.391 23.2868 240.768 23.5884 241.032 24.0408C241.295 24.4555 241.371 24.9834 241.22 25.4358L193.904 212.515C193.79 213.005 193.489 213.42 193.036 213.646C192.735 213.835 192.433 213.91 192.094 213.91Z" fill="#25262D"/>
<path d="M66.3558 229.481C58.5514 229.481 49.8799 228.878 40.2658 227.596C39.2478 227.483 38.5314 226.54 38.6446 225.522C38.7954 224.504 39.7379 223.788 40.7182 223.939C69.9752 227.747 90.4853 225.711 101.758 217.831L157.859 175.793L176.824 163.615C176.975 163.502 177.088 163.351 177.125 163.162C177.163 163.049 177.163 162.898 177.05 162.785C172.94 157.281 167.926 154.114 161.667 153.134C155.371 152.153 148.698 154.038 142.741 158.45C124.191 172.173 106.735 173.568 90.9 162.597C90.0706 162.031 89.8444 160.863 90.4099 159.995C90.9754 159.166 92.1442 158.94 92.9737 159.543C107.602 169.647 123.136 168.29 140.479 155.433C147.227 150.457 154.919 148.308 162.158 149.439C169.321 150.57 175.316 154.302 179.991 160.561C180.669 161.503 180.971 162.672 180.745 163.841C180.519 165.01 179.84 166.065 178.822 166.744L159.971 178.847L104.02 220.847C95.726 226.578 83.1334 229.481 66.3558 229.481Z" fill="#25262D"/>
<path d="M40.5298 158.902C40.0019 158.902 39.4364 158.676 39.0971 158.224C38.4561 157.432 38.5693 156.263 39.3987 155.622C51.9913 145.518 63.3397 136.62 74.2734 129.834C82.7187 124.593 92.5591 122.142 102.626 122.746L116.5 123.575C117.518 123.65 118.31 124.518 118.234 125.536C118.159 126.554 117.254 127.308 116.274 127.27L102.399 126.44C93.0869 125.913 84.0006 128.137 76.2339 132.963C65.4888 139.636 54.2534 148.459 41.7363 158.487C41.3592 158.751 40.9445 158.902 40.5298 158.902Z" fill="#25262D"/>
<path d="M182.744 184.955C182.593 184.955 182.442 184.955 182.291 184.917C181.311 184.653 180.708 183.673 180.934 182.655L214.452 47.9065C214.64 47.077 215.394 46.5115 216.261 46.5115C217.279 46.5115 218.146 47.3409 218.146 48.3589C218.146 48.6228 218.109 48.8867 217.996 49.1129L184.554 183.597C184.327 184.389 183.573 184.955 182.744 184.955Z" fill="#25262D"/>
<path d="M165.476 196.001C165.288 196.001 165.099 195.964 164.911 195.926L144.401 189.366C143.42 189.064 142.892 188.009 143.194 187.028C143.496 186.048 144.551 185.52 145.532 185.822L166.042 192.382C167.022 192.684 167.55 193.739 167.248 194.72C166.984 195.511 166.268 196.001 165.476 196.001Z" fill="#25262D"/>
<path d="M205.177 28.9045C205.026 28.9045 204.913 28.9045 204.763 28.8668L175.091 22.1935C174.073 21.9673 173.47 20.987 173.696 19.9691C173.922 18.9888 174.902 18.3479 175.92 18.5741L205.592 25.2474C206.572 25.4736 207.213 26.4539 206.987 27.4718C206.799 28.3013 206.044 28.9045 205.177 28.9045Z" fill="#25262D"/>
<path d="M122.232 168.629C122.081 168.629 121.93 168.592 121.779 168.554C120.799 168.29 120.196 167.272 120.46 166.292L155.447 31.9583C155.711 30.978 156.692 30.3748 157.71 30.6387C158.69 30.9026 159.293 31.9206 159.029 32.9008L124.041 167.234C123.777 168.102 123.023 168.629 122.232 168.629Z" fill="#25262D"/>
<path d="M160.008 34.5222C159.027 34.5222 157.972 34.4468 156.916 34.296C155.898 34.1452 155.182 33.2026 155.333 32.2224C155.483 31.2044 156.426 30.488 157.406 30.6389C165.022 31.6945 170.338 28.1128 173.731 19.7052C174.108 18.7626 175.202 18.3102 176.144 18.6872C177.087 19.0642 177.539 20.1576 177.162 21.1002C173.581 29.9979 167.812 34.5222 160.008 34.5222Z" fill="#25262D"/>
<path d="M216.262 50.1686C216.036 50.1686 215.809 50.1309 215.583 50.0178C205.705 46.059 201.596 38.2169 203.368 26.7177C203.518 25.6997 204.499 25.0211 205.479 25.1719C206.497 25.3227 207.176 26.2653 207.025 27.2832C205.554 37.0104 208.797 43.3067 216.978 46.5868C217.921 46.9639 218.411 48.0572 217.996 48.9998C217.694 49.7161 217.016 50.1686 216.262 50.1686Z" fill="#25262D"/>
<path d="M165.474 196.001C165.324 196.001 165.173 196.001 165.022 195.964C164.042 195.7 163.438 194.719 163.665 193.701C166.04 184.314 172.676 180.016 182.931 181.26C183.949 181.373 184.665 182.315 184.552 183.333C184.439 184.351 183.534 185.105 182.478 184.955C174.033 183.899 169.207 186.99 167.284 194.606C167.058 195.436 166.304 196.001 165.474 196.001Z" fill="#25262D"/>
<path d="M171.809 126.44C170.226 126.44 168.604 126.289 166.983 125.988C160.234 124.706 154.428 120.86 150.583 115.205C146.737 109.55 145.304 102.688 146.624 95.9768C149.263 82.0646 162.76 72.9406 176.635 75.5798C190.547 78.2566 199.671 91.7164 197.032 105.591C194.657 117.882 183.874 126.44 171.809 126.44ZM171.809 78.8222C161.479 78.8222 152.279 86.1364 150.243 96.6554C149.15 102.424 150.356 108.268 153.636 113.094C156.917 117.957 161.931 121.237 167.662 122.331C179.576 124.631 191.075 116.788 193.337 104.912C195.599 93.036 187.795 81.499 175.919 79.2369C174.561 78.9353 173.166 78.8222 171.809 78.8222Z" fill="#25262D"/>
<path d="M167.324 106.345C166.91 106.345 166.533 106.307 166.118 106.232C162.649 105.553 160.349 102.198 161.028 98.6915C161.707 95.2229 165.062 92.923 168.568 93.564C169.586 93.7525 170.227 94.7327 170.039 95.7507C169.85 96.7687 168.832 97.4096 167.852 97.2211C166.344 96.9195 164.949 97.8997 164.685 99.3701C164.383 100.841 165.364 102.273 166.834 102.537C168.342 102.839 169.737 101.858 170.001 100.388C170.19 99.3701 171.17 98.7292 172.188 98.9177C173.206 99.1062 173.847 100.086 173.658 101.104C173.055 104.196 170.34 106.345 167.324 106.345Z" fill="#25262D"/>
<path d="M176.336 108.08C175.921 108.08 175.507 108.042 175.129 107.966C174.112 107.778 173.471 106.798 173.659 105.78C173.848 104.762 174.828 104.121 175.846 104.309C176.562 104.46 177.279 104.309 177.882 103.895C178.485 103.48 178.9 102.877 179.013 102.16C179.314 100.69 178.334 99.2572 176.864 98.9932C175.356 98.6916 173.961 99.6719 173.697 101.142C173.508 102.16 172.49 102.801 171.51 102.613C170.492 102.424 169.851 101.444 170.04 100.426C170.718 96.9573 174.074 94.6575 177.58 95.2984C181.049 95.977 183.349 99.3326 182.67 102.839C182.331 104.535 181.388 106.006 179.955 106.948C178.824 107.702 177.58 108.08 176.336 108.08Z" fill="#25262D"/>
<path d="M162.835 100.916C162.722 100.916 162.609 100.916 162.496 100.878L159.819 100.35C158.801 100.162 158.16 99.1816 158.348 98.1636C158.537 97.1457 159.517 96.5047 160.535 96.6932L163.212 97.2211C164.23 97.4096 164.871 98.3898 164.682 99.4078C164.456 100.275 163.702 100.916 162.835 100.916Z" fill="#25262D"/>
<path d="M183.458 104.875C183.345 104.875 183.232 104.875 183.119 104.837L180.442 104.309C179.424 104.121 178.783 103.14 178.971 102.122C179.16 101.104 180.14 100.463 181.158 100.652L183.835 101.18C184.853 101.368 185.494 102.349 185.305 103.366C185.117 104.234 184.325 104.875 183.458 104.875Z" fill="#25262D"/>
<path d="M21.1857 183.522C15.4173 183.522 10.7422 178.847 10.7422 173.078C10.7422 167.31 15.4173 162.635 21.1857 162.635C26.9542 162.635 31.6293 167.31 31.6293 173.078C31.6293 178.847 26.9542 183.522 21.1857 183.522ZM21.1857 166.33C17.4909 166.33 14.4747 169.346 14.4747 173.041C14.4747 176.735 17.4909 179.752 21.1857 179.752C24.8806 179.752 27.8968 176.735 27.8968 173.041C27.8968 169.346 24.9183 166.33 21.1857 166.33Z" fill="#25262D"/>
</svg>
