<svg width="265" height="255" viewBox="0 0 265 255" fill="none" xmlns="http://www.w3.org/2000/svg">
<path fill-rule="evenodd" clip-rule="evenodd" d="M150.23 14.0303C138.451 7.99259 122.787 13.0549 112.815 25.9987C111.329 27.9249 109.975 30.0198 108.781 32.271C102.225 44.6304 102.422 58.2081 107.921 67.3737C109.09 69.3205 111.617 69.9543 113.568 68.7854C115.514 67.6166 116.148 65.0895 114.979 63.1387C110.749 56.0844 111.004 45.6429 116.054 36.1274C117.025 34.2959 118.128 32.5921 119.334 31.024C126.647 21.5291 137.838 16.9277 146.473 21.3562C148.493 22.3893 150.975 21.5908 152.012 19.57C153.05 17.5492 152.251 15.0675 150.23 14.0303Z" fill="#25262D"/>
<path fill-rule="evenodd" clip-rule="evenodd" d="M68.747 60.6817C67.0925 58.7514 65.6026 56.5742 64.335 54.183C57.4906 41.2803 59.3344 26.5009 69.3767 21.3563C79.4601 16.1829 92.9225 23.1672 99.7957 36.1275C104.846 45.643 105.101 56.0845 100.87 63.1388C99.7011 65.0896 100.335 67.6166 102.282 68.7855C104.232 69.9543 106.759 69.3205 107.928 67.3738C113.423 58.2082 113.624 44.6305 107.068 32.2711C97.8614 14.9153 79.1268 7.10367 65.6191 14.0304C52.0702 20.9777 47.8228 40.6218 57.0626 58.0394C58.6224 60.9821 60.458 63.6573 62.4953 66.0362C63.9728 67.7607 66.5739 67.9623 68.2984 66.4848C70.0229 65.0073 70.2245 62.4062 68.747 60.6817Z" fill="#25262D"/>
<path fill-rule="evenodd" clip-rule="evenodd" d="M18.9033 127.5V250.884C18.9033 253.16 20.7471 255 23.019 255H189.585C191.861 255 193.701 253.16 193.701 250.884V160.882C193.701 158.61 191.857 156.767 189.585 156.767C187.313 156.767 185.469 158.61 185.469 160.882V246.768H27.1347C27.1347 246.773 27.1347 127.5 27.1347 127.5C27.1347 125.228 25.2909 123.384 23.019 123.384C20.7471 123.384 18.9033 125.228 18.9033 127.5Z" fill="#25262D"/>
<path fill-rule="evenodd" clip-rule="evenodd" d="M79.9956 113.367V250.884C79.9956 253.16 81.8394 255 84.1113 255H128.495C130.767 255 132.611 253.16 132.611 250.884V130.077C132.611 127.805 130.767 125.961 128.495 125.961C126.223 125.961 124.379 127.805 124.379 130.077V246.769H88.227V113.367C88.227 111.095 86.3832 109.251 84.1113 109.251C81.8394 109.251 79.9956 111.095 79.9956 113.367Z" fill="#25262D"/>
<path fill-rule="evenodd" clip-rule="evenodd" d="M122.318 61.1425H5.02877C2.75691 61.1425 0.913086 62.9822 0.913086 65.2582V113.366C0.913086 115.638 2.75691 117.482 5.02877 117.482H111.308C113.58 117.482 115.424 115.638 115.424 113.366C115.424 111.095 113.58 109.251 111.308 109.251H9.14446V69.3739H122.318C124.59 69.3739 126.433 67.526 126.433 65.2582C126.433 62.9863 124.59 61.1425 122.318 61.1425Z" fill="#25262D"/>
<path fill-rule="evenodd" clip-rule="evenodd" d="M164.648 7.65106C160.512 7.0296 156.133 7.75396 152.219 10.0094C148.296 12.273 145.477 15.7219 143.946 19.6318C142.222 23.9121 138.802 27.3364 134.492 29.0897C130.558 30.6372 127.125 33.4523 124.866 37.3622C122.602 41.2845 121.882 45.68 122.512 49.8327C123.158 54.4012 121.911 59.0766 119.054 62.7519C116.42 66.0609 114.856 70.2136 114.856 74.7285C114.856 79.2599 116.429 83.425 119.05 86.7052C121.894 90.3393 123.154 95.0148 122.516 99.6243C121.886 103.806 122.61 108.185 124.866 112.095C127.134 116.017 130.578 118.84 134.488 120.367C138.769 122.096 142.193 125.512 143.946 129.825C145.494 133.76 148.309 137.192 152.219 139.448C156.145 141.715 160.536 142.432 164.689 141.806C169.258 141.16 173.937 142.407 177.608 145.263C180.917 147.897 185.07 149.461 189.585 149.461C194.116 149.461 198.281 147.885 201.562 145.267C205.196 142.423 209.871 141.164 214.481 141.802C218.662 142.427 223.041 141.707 226.951 139.448C230.874 137.184 233.697 133.739 235.228 129.829C236.952 125.549 240.368 122.121 244.682 120.367C248.616 118.82 252.049 116.005 254.304 112.095C256.572 108.173 257.288 103.777 256.662 99.6243C256.016 95.0559 257.263 90.3805 260.12 86.7052C262.754 83.4003 264.318 79.2435 264.318 74.7285C264.318 70.2013 262.745 66.0321 260.124 62.7519C257.28 59.1177 256.02 54.4464 256.658 49.8327C257.284 45.6553 256.564 41.2721 254.304 37.3622C252.041 33.44 248.596 30.6207 244.686 29.0897C240.406 27.3652 236.977 23.9451 235.224 19.6359C233.676 15.6972 230.861 12.2689 226.951 10.0094C223.029 7.74573 218.634 7.02548 214.485 7.65518C209.912 8.30134 205.237 7.05429 201.562 4.198C198.257 1.56396 194.1 0 189.585 0C185.058 0 180.893 1.57219 177.608 4.19389C173.974 7.03783 169.303 8.29311 164.693 7.6593L164.648 7.65106ZM163.45 15.796C163.467 15.796 163.483 15.8001 163.5 15.8042C170.336 16.7673 177.275 14.907 182.716 10.6514C182.724 10.6391 182.736 10.6308 182.749 10.6226C184.621 9.1286 187 8.23137 189.585 8.23137C192.17 8.23137 194.549 9.1286 196.421 10.6226C196.433 10.6349 196.446 10.6432 196.458 10.6514C201.899 14.907 208.838 16.7632 215.674 15.8001C215.691 15.796 215.703 15.796 215.715 15.7919C218.086 15.4338 220.597 15.8454 222.836 17.1377C225.075 18.43 226.684 20.3974 227.556 22.6281C227.565 22.6445 227.569 22.6569 227.573 22.6733C230.162 29.0773 235.24 34.1561 241.644 36.7366C241.657 36.7449 241.669 36.749 241.685 36.7531C243.916 37.6297 245.883 39.239 247.176 41.4779C248.468 43.7168 248.88 46.2274 248.522 48.5939C248.518 48.6104 248.513 48.6269 248.513 48.6392C247.55 55.4795 249.411 62.4185 253.666 67.8595C253.674 67.8677 253.683 67.88 253.691 67.8924C255.189 69.765 256.086 72.1439 256.086 74.7285C256.086 77.3132 255.189 79.6921 253.691 81.5647C253.683 81.577 253.67 81.5894 253.662 81.6017C249.407 87.0427 247.55 93.9776 248.518 100.818C248.518 100.83 248.522 100.847 248.522 100.859C248.884 103.23 248.472 105.74 247.176 107.979C245.883 110.218 243.92 111.827 241.685 112.7C241.673 112.704 241.657 112.712 241.644 112.716C235.236 115.301 230.162 120.384 227.577 126.788C227.573 126.8 227.569 126.813 227.56 126.825C226.688 129.06 225.075 131.027 222.836 132.319C220.597 133.612 218.09 134.023 215.72 133.661C215.707 133.661 215.691 133.657 215.674 133.657C208.834 132.694 201.899 134.554 196.458 138.81C196.446 138.818 196.438 138.826 196.425 138.835C194.553 140.333 192.174 141.23 189.585 141.23C187 141.23 184.621 140.333 182.753 138.835C182.741 138.826 182.728 138.814 182.716 138.806C177.275 134.55 170.336 132.694 163.496 133.661C163.483 133.661 163.471 133.665 163.454 133.665C161.084 134.023 158.577 133.612 156.334 132.319C154.1 131.027 152.486 129.06 151.614 126.829C151.61 126.817 151.605 126.8 151.597 126.784C149.013 120.38 143.934 115.301 137.526 112.72C137.513 112.716 137.501 112.708 137.489 112.704C135.258 111.831 133.291 110.218 131.994 107.979C130.702 105.74 130.29 103.234 130.652 100.863C130.657 100.847 130.657 100.834 130.661 100.818C131.624 93.9776 129.763 87.0386 125.508 81.6017C125.5 81.5894 125.491 81.577 125.479 81.5688C123.985 79.6962 123.088 77.3173 123.088 74.7285C123.088 72.1439 123.985 69.765 125.479 67.8965C125.491 67.8842 125.5 67.8718 125.512 67.8595C129.763 62.4185 131.624 55.4795 130.657 48.6392C130.652 48.6269 130.652 48.6145 130.648 48.598C130.29 46.2274 130.702 43.721 131.994 41.4779C133.287 39.239 135.254 37.6297 137.484 36.7572C137.501 36.7531 137.513 36.749 137.53 36.7407C143.934 34.1561 149.013 29.0773 151.597 22.6692C151.601 22.6569 151.605 22.6445 151.61 22.6322C152.486 20.4015 154.095 18.43 156.334 17.1377C158.573 15.8454 161.084 15.4338 163.45 15.796Z" fill="#25262D"/>
<path fill-rule="evenodd" clip-rule="evenodd" d="M172.262 97.9534L210.727 59.4882C212.332 57.8831 212.332 55.2737 210.727 53.6686C209.122 52.0594 206.513 52.0594 204.907 53.6686L166.442 92.1338C164.833 93.7389 164.833 96.3483 166.442 97.9534C168.047 99.5585 170.657 99.5585 172.262 97.9534Z" fill="#25262D"/>
<path fill-rule="evenodd" clip-rule="evenodd" d="M172.476 44.4247C165.237 44.4247 159.359 50.3019 159.359 57.5373C159.359 64.7768 165.237 70.654 172.476 70.654C179.711 70.654 185.589 64.7768 185.589 57.5373C185.589 50.3019 179.711 44.4247 172.476 44.4247ZM172.476 52.6561C175.172 52.6561 177.357 54.8416 177.357 57.5373C177.357 60.2331 175.172 62.4226 172.476 62.4226C169.78 62.4226 167.591 60.2331 167.591 57.5373C167.591 54.8416 169.78 52.6561 172.476 52.6561Z" fill="#25262D"/>
<path fill-rule="evenodd" clip-rule="evenodd" d="M206.699 78.8069C199.459 78.8069 193.582 84.68 193.582 91.9195C193.582 99.159 199.459 105.036 206.699 105.036C213.938 105.036 219.811 99.159 219.811 91.9195C219.811 84.68 213.938 78.8069 206.699 78.8069ZM206.699 87.0383C209.395 87.0383 211.58 89.2237 211.58 91.9195C211.58 94.6153 209.395 96.8048 206.699 96.8048C204.003 96.8048 201.813 94.6153 201.813 91.9195C201.813 89.2237 204.003 87.0383 206.699 87.0383Z" fill="#25262D"/>
</svg>
