<svg width="231" height="231" viewBox="0 0 231 231" fill="none" xmlns="http://www.w3.org/2000/svg">
<path d="M229.681 75.6975L214.079 60.0953C213.607 59.6228 212.839 59.3472 212.278 59.357C211.608 59.357 210.959 59.6327 210.486 60.115C205.171 65.5486 198.044 68.5511 190.415 68.5511C182.796 68.5511 175.659 65.5586 170.304 60.0757C164.871 54.76 161.868 47.6333 161.868 40.0045C161.868 32.3758 164.861 25.2488 170.304 19.9334C170.787 19.4609 171.062 18.8211 171.062 18.1418C171.062 17.4725 170.797 16.8228 170.324 16.3405L154.722 0.738266C153.738 -0.246089 152.143 -0.246089 151.158 0.738266L0.738279 151.199C0.265783 151.671 0 152.321 0 152.99C0 153.66 0.275636 154.309 0.75796 154.782L16.3602 170.108C17.3445 171.083 18.9293 171.073 19.9038 170.089C30.9287 159.064 49.0801 159.074 60.3419 170.069C71.3766 181.36 71.3864 199.522 60.3616 210.545C59.387 211.519 59.3772 213.104 60.3419 214.088L75.6684 229.691C76.1409 230.173 76.7216 230.399 77.4698 230.449C78.1391 230.449 78.779 230.183 79.2515 229.71L229.692 79.2701C230.666 78.2759 230.666 76.6821 229.681 75.6975ZM122.03 179.785L107.659 165.414C106.674 164.429 105.08 164.429 104.095 165.414C103.111 166.398 103.111 167.993 104.095 168.977L118.467 183.349L77.4769 224.339L65.6252 212.27C76.8665 199.198 76.3056 179.186 63.9025 166.497C51.2535 154.134 31.2411 153.573 18.1775 164.814L6.10906 152.962L47.089 111.972L61.4607 126.344C61.9528 126.836 62.5927 127.082 63.2424 127.082C63.892 127.082 64.5319 126.836 65.0241 126.344C66.0084 125.36 66.0084 123.765 65.0241 122.781L50.6524 108.409L152.958 6.1028L165.047 18.1909C159.741 24.225 156.847 31.8736 156.847 40.0144C156.847 49.0017 160.381 57.4081 166.759 63.6491C173.03 70.0672 181.436 73.601 190.433 73.601C198.574 73.601 206.223 70.707 212.257 65.4012L224.345 77.4893L122.03 179.785Z" fill="#25262D"/>
<path d="M78.4034 135.872C77.4191 134.888 75.8245 134.888 74.8399 135.872C73.8553 136.857 73.8555 138.451 74.8399 139.436L90.9935 155.589C91.4857 156.081 92.1255 156.328 92.7752 156.328C93.4249 156.328 94.0647 156.081 94.5569 155.589C95.5412 154.605 95.5412 153.01 94.5569 152.026L78.4034 135.872Z" fill="#25262D"/>
<path d="M155.704 92.3041C151.934 92.3632 148.439 93.889 145.86 96.6156C140.466 102.039 140.456 111.096 145.89 116.864C148.597 119.571 152.219 120.93 155.881 120.93C159.562 120.93 163.293 119.561 166.217 116.805C171.611 111.076 171.591 102 166.168 96.5765C163.333 93.771 159.68 92.186 155.704 92.3041ZM162.653 113.261C158.883 116.805 152.957 116.825 149.502 113.37C145.958 109.599 145.939 103.673 149.453 100.159L149.502 100.11C151.146 98.3678 153.371 97.3933 155.782 97.3538H155.92C158.411 97.3538 160.783 98.348 162.594 100.169C166.108 103.673 166.089 109.6 162.653 113.261Z" fill="#25262D"/>
<path d="M90.4416 87.6775C87.8132 90.3059 86.3564 93.8593 86.3564 97.6788C86.3564 101.498 87.8035 105.052 90.4416 107.68C93.2864 110.525 96.9285 111.942 100.58 111.942C104.232 111.942 107.875 110.525 110.719 107.68C113.348 105.052 114.795 101.498 114.795 97.6788C114.795 93.8593 113.348 90.3059 110.719 87.6775C105.04 81.9977 96.1312 81.9879 90.4416 87.6775ZM107.156 104.116C103.406 107.867 97.7553 107.867 94.0048 104.116C92.3216 102.433 91.3962 100.149 91.3962 97.6786C91.3962 95.2078 92.3215 92.9241 94.0048 91.2408C95.8751 89.3705 98.2278 88.4255 100.58 88.4255C102.933 88.4255 105.276 89.3606 107.156 91.2408C110.651 94.7352 110.651 100.622 107.156 104.116Z" fill="#25262D"/>
<path d="M128.163 56.8581C126.775 56.8581 125.643 57.9901 125.643 59.3781V144.909C125.643 146.297 126.775 147.429 128.163 147.429C129.551 147.429 130.683 146.297 130.683 144.909V59.3781C130.683 57.9803 129.551 56.8581 128.163 56.8581Z" fill="#25262D"/>
</svg>
