<svg width="32" height="32" viewBox="0 0 32 32" fill="none" xmlns="http://www.w3.org/2000/svg">
<path d="M21.5155 28C19.9706 28 17.9761 26.9685 16.5749 26.1031C14.6986 24.9442 12.6772 23.3407 10.8829 21.5887L10.8763 21.5822L10.3067 21.0112C8.55851 19.2129 6.95894 17.1867 5.8025 15.3061C4.93909 13.9018 3.90979 11.9029 3.90979 10.3544C3.90979 8.69734 5.09211 6.93871 5.60025 6.25963C5.99687 5.72945 7.3825 4 8.55987 4C9.0432 4 9.56383 4.31714 10.2481 5.02844C10.8533 5.65724 11.4341 6.43907 11.8146 6.98407C12.3258 7.71575 12.7984 8.4819 13.1459 9.14143C13.7081 10.2093 13.7731 10.6675 13.7731 10.9189C13.7731 11.4265 13.5085 11.8669 12.9869 12.2277C12.6435 12.465 12.231 12.6438 11.8323 12.8167C11.5633 12.9334 11.1339 13.1195 10.9701 13.2504C11.0273 13.4929 11.2771 14.0789 11.9521 15.0722C12.5811 15.9979 13.3946 17.0009 14.1294 17.7572C14.8841 18.4937 15.8846 19.3092 16.8085 19.9395C17.7992 20.6159 18.3838 20.8664 18.6261 20.9237C18.7565 20.7596 18.9423 20.3292 19.0586 20.0598C19.231 19.6601 19.4095 19.2466 19.6465 18.9024C20.0065 18.3794 20.4458 18.1145 20.9524 18.1145C21.2033 18.1145 21.6603 18.1796 22.7257 18.7431C23.3839 19.0913 24.1483 19.5651 24.8784 20.0773C25.4221 20.4587 26.2022 21.0408 26.8297 21.6472C27.5391 22.3332 27.8556 22.8549 27.8556 23.3395C27.8556 24.5194 26.1302 25.9083 25.6013 26.3056C24.9234 26.8153 23.1686 28 21.5155 28ZM20.2873 15.4919C20.0406 15.4919 19.822 15.3148 19.7776 15.0626C19.6508 14.342 19.2345 13.7157 18.6051 13.2995C17.9669 12.8772 17.1868 12.7204 16.4082 12.858C16.1264 12.9079 15.8577 12.7192 15.8081 12.4366C15.7584 12.1543 15.9465 11.8849 16.2284 11.8352C17.2688 11.6512 18.3157 11.8634 19.1759 12.4326C20.0453 13.0077 20.6215 13.8776 20.7982 14.8823C20.8479 15.1649 20.6598 15.4342 20.3779 15.484C20.3475 15.4894 20.3172 15.4919 20.2873 15.4919ZM23.4067 14.1508C23.16 14.1508 22.9413 13.9737 22.8971 13.7216C22.651 12.3229 21.8446 11.1088 20.6265 10.3031C19.3995 9.49123 17.9014 9.18947 16.4083 9.45342C16.1264 9.5032 15.8579 9.31447 15.8082 9.03213C15.7585 8.74973 15.9466 8.48018 16.2284 8.43043C17.9835 8.1204 19.7483 8.47733 21.1973 9.43625C22.6556 10.4008 23.6217 11.8587 23.9175 13.5413C23.9674 13.8238 23.7791 14.0932 23.4972 14.143C23.4669 14.1482 23.4366 14.1508 23.4067 14.1508ZM27.5715 13.7637C27.3247 13.7637 27.1059 13.5863 27.0616 13.3343C26.6418 10.9476 25.267 8.87625 23.1904 7.50277C21.105 6.12312 18.5604 5.61006 16.0256 6.05807C15.7438 6.1078 15.4752 5.91923 15.4256 5.63669C15.376 5.35435 15.5641 5.08492 15.8459 5.03519C18.6426 4.5408 21.4537 5.10925 23.7613 6.63573C26.078 8.16833 27.6125 10.4832 28.0823 13.154C28.1321 13.4364 27.9438 13.7058 27.662 13.7555C27.6316 13.7611 27.6014 13.7637 27.5715 13.7637Z" fill="white"/>
</svg>
