<svg width="11" height="11" viewBox="0 0 11 11" fill="none" xmlns="http://www.w3.org/2000/svg">
<path d="M7.37726 9.36172C6.88423 9.36172 6.24766 9.03254 5.80049 8.75632C5.20167 8.38646 4.55652 7.87472 3.98388 7.31556L3.98179 7.3135L3.8 7.13124C3.24206 6.55733 2.73155 5.91068 2.36248 5.31047C2.08692 4.86231 1.75842 4.22434 1.75842 3.73015C1.75842 3.2013 2.13576 2.64004 2.29793 2.42331C2.42451 2.2541 2.86673 1.70215 3.24249 1.70215C3.39674 1.70215 3.5629 1.80336 3.78128 2.03037C3.97444 2.23106 4.1598 2.48057 4.28124 2.65451C4.44437 2.88803 4.59521 3.13254 4.70611 3.34303C4.88555 3.68384 4.9063 3.83006 4.9063 3.91032C4.9063 4.07231 4.82185 4.21286 4.65538 4.328C4.54577 4.40376 4.41413 4.4608 4.2869 4.51599C4.20104 4.55323 4.06399 4.61262 4.0117 4.6544C4.02998 4.7318 4.10969 4.91882 4.32511 5.23583C4.52588 5.53127 4.7855 5.85137 5.02001 6.09274C5.26087 6.32779 5.58018 6.58806 5.87505 6.78923C6.1912 7.00509 6.37779 7.08504 6.45513 7.10334C6.49674 7.05096 6.55603 6.9136 6.59316 6.82761C6.64819 6.70005 6.70515 6.56809 6.78077 6.45822C6.89568 6.29133 7.03586 6.20677 7.19755 6.20677C7.27764 6.20677 7.42349 6.22754 7.76351 6.40739C7.97355 6.51851 8.21754 6.66972 8.45052 6.83321C8.62406 6.95493 8.87301 7.1407 9.07329 7.33423C9.2997 7.55318 9.40071 7.71969 9.40071 7.87432C9.40071 8.2509 8.85006 8.69417 8.68125 8.82097C8.46488 8.98363 7.90485 9.36172 7.37726 9.36172ZM6.98528 5.36976C6.90654 5.36976 6.8368 5.31326 6.82263 5.23278C6.78215 5.00279 6.64929 4.8029 6.44842 4.67006C6.24475 4.5353 5.99575 4.48525 5.74729 4.52918C5.65734 4.54511 5.57159 4.48486 5.55576 4.39469C5.5399 4.30458 5.59994 4.21862 5.68989 4.20274C6.02194 4.14401 6.35604 4.21173 6.63059 4.39341C6.90804 4.57693 7.09193 4.85458 7.14835 5.17523C7.16421 5.2654 7.10416 5.35135 7.01422 5.36725C7.00452 5.36897 6.99482 5.36976 6.98528 5.36976ZM7.98085 4.94175C7.90211 4.94175 7.83232 4.88523 7.8182 4.8048C7.73967 4.3584 7.48231 3.97092 7.09356 3.71376C6.70195 3.45467 6.22384 3.35836 5.7473 3.4426C5.65735 3.45849 5.57166 3.39826 5.55577 3.30815C5.53991 3.21802 5.59995 3.13199 5.6899 3.11612C6.25004 3.01717 6.81325 3.13109 7.27572 3.43712C7.74112 3.74495 8.04945 4.21026 8.14388 4.74724C8.15978 4.83742 8.09968 4.9234 8.00973 4.93927C8.00004 4.94094 7.99039 4.94175 7.98085 4.94175ZM9.31003 4.81821C9.23128 4.81821 9.16143 4.76161 9.14731 4.68119C9.01332 3.91948 8.57456 3.2584 7.9118 2.82005C7.24624 2.37974 6.43414 2.216 5.62516 2.35898C5.53525 2.37485 5.4495 2.31467 5.43367 2.2245C5.41784 2.13439 5.47787 2.0484 5.56783 2.03253C6.46038 1.87474 7.35754 2.05617 8.09402 2.54334C8.83338 3.03247 9.32312 3.77127 9.47306 4.62365C9.48895 4.71376 9.42886 4.79973 9.33891 4.8156C9.32921 4.81738 9.31956 4.81821 9.31003 4.81821Z" fill="white"/>
</svg>
