<svg width="32" height="32" viewBox="0 0 32 32" fill="none" xmlns="http://www.w3.org/2000/svg">
<path d="M16 20.5C10.6 20.5 6.25 22.15 6.25 24.25C6.25 26.35 10.6 28 16 28C21.4 28 25.75 26.35 25.75 24.25C25.75 22.15 21.4 20.5 16 20.5ZM16 25.75C12.25 25.75 9.25 25.075 9.25 24.25C9.25 23.425 12.25 22.75 16 22.75C19.75 22.75 22.75 23.425 22.75 24.25C22.75 25.075 19.75 25.75 16 25.75Z" fill="white"/>
<path d="M16 4C12.25 4 9.25 7 9.25 10.75C9.25 14.5 16 25 16 25C16 25 22.75 14.5 22.75 10.75C22.75 7 19.75 4 16 4ZM16 13.75C14.35 13.75 13 12.4 13 10.75C13 9.1 14.35 7.75 16 7.75C17.65 7.75 19 9.1 19 10.75C19 12.4 17.65 13.75 16 13.75Z" fill="white"/>
</svg>
