<svg width="11" height="11" viewBox="0 0 11 11" fill="none" xmlns="http://www.w3.org/2000/svg">
<path d="M5.17023 6.96814C3.44683 6.96814 2.05853 7.49474 2.05853 8.16495C2.05853 8.83516 3.44683 9.36176 5.17023 9.36176C6.89364 9.36176 8.28194 8.83516 8.28194 8.16495C8.28194 7.49474 6.89364 6.96814 5.17023 6.96814ZM5.17023 8.64367C3.97343 8.64367 3.01598 8.42825 3.01598 8.16495C3.01598 7.90165 3.97343 7.68622 5.17023 7.68622C6.36704 7.68622 7.32449 7.90165 7.32449 8.16495C7.32449 8.42825 6.36704 8.64367 5.17023 8.64367Z" fill="white"/>
<path d="M5.17025 1.70215C3.97344 1.70215 3.01599 2.6596 3.01599 3.8564C3.01599 5.05321 5.17025 8.40427 5.17025 8.40427C5.17025 8.40427 7.3245 5.05321 7.3245 3.8564C7.3245 2.6596 6.36706 1.70215 5.17025 1.70215ZM5.17025 4.81385C4.64365 4.81385 4.2128 4.383 4.2128 3.8564C4.2128 3.32981 4.64365 2.89896 5.17025 2.89896C5.69684 2.89896 6.12769 3.32981 6.12769 3.8564C6.12769 4.383 5.69684 4.81385 5.17025 4.81385Z" fill="white"/>
</svg>
